STARTFONT 2.1
FONT -KN5000-Font2-medium-r-normal--16-160-72-72-c-160-iso8859-1
SIZE 16 72 72
FONTBOUNDINGBOX 16 16 0 -2
STARTPROPERTIES 5
FONT_ASCENT 2
FONT_DESCENT 2
PIXEL_SIZE 16
POINT_SIZE 160
DEFAULT_CHAR 32
ENDPROPERTIES
CHARS 95
STARTCHAR U+0020
ENCODING 32
SWIDTH 1000 0
DWIDTH 16 0
BBX 16 16 0 -2
BITMAP
0000
0000
0000
0000
0000
0000
0000
0000
0000
0000
0000
0000
0000
0000
0000
0000
ENDCHAR
STARTCHAR U+0021
ENCODING 33
SWIDTH 1000 0
DWIDTH 16 0
BBX 16 16 0 -2
BITMAP
0180
03C0
03C0
03C0
03C0
03C0
03C0
0180
0180
0180
0180
0000
0180
0180
0000
0000
ENDCHAR
STARTCHAR U+0022
ENCODING 34
SWIDTH 1000 0
DWIDTH 16 0
BBX 16 16 0 -2
BITMAP
1860
3CF0
3CF0
1860
30C0
0000
0000
0000
0000
0000
0000
0000
0000
0000
0000
0000
ENDCHAR
STARTCHAR U+0023
ENCODING 35
SWIDTH 1000 0
DWIDTH 16 0
BBX 16 16 0 -2
BITMAP
0000
0000
0660
0660
1FF8
1FF8
0660
0660
1FF8
1FF8
0660
0660
0000
0000
0000
0000
ENDCHAR
STARTCHAR U+0024
ENCODING 36
SWIDTH 1000 0
DWIDTH 16 0
BBX 16 16 0 -2
BITMAP
0180
0FF0
1FF8
3FFC
3DBC
3D80
3F80
1FF0
0FF8
01FC
01BC
3DBC
3FFC
1FF8
0FF0
0180
ENDCHAR
STARTCHAR U+0025
ENCODING 37
SWIDTH 1000 0
DWIDTH 16 0
BBX 16 16 0 -2
BITMAP
0006
180E
3C1C
6638
6670
3CE0
19C0
0398
073C
0E66
1C66
383C
7018
6000
0000
0000
ENDCHAR
STARTCHAR U+0026
ENCODING 38
SWIDTH 1000 0
DWIDTH 16 0
BBX 16 16 0 -2
BITMAP
03C0
07E0
0E70
0C30
0C30
0E70
07E0
07C0
0EEE
1CFE
3878
3CF8
1FFC
0FCC
0000
0000
ENDCHAR
STARTCHAR U+0027
ENCODING 39
SWIDTH 1000 0
DWIDTH 16 0
BBX 16 16 0 -2
BITMAP
1800
3C00
3C00
1800
3000
0000
0000
0000
0000
0000
0000
0000
0000
0000
0000
0000
ENDCHAR
STARTCHAR U+0028
ENCODING 40
SWIDTH 1000 0
DWIDTH 16 0
BBX 16 16 0 -2
BITMAP
00C0
01C0
0380
0700
0E00
0C00
0C00
0C00
0C00
0E00
0700
0380
01C0
00C0
0000
0000
ENDCHAR
STARTCHAR U+0029
ENCODING 41
SWIDTH 1000 0
DWIDTH 16 0
BBX 16 16 0 -2
BITMAP
0600
0700
0380
01C0
00E0
0060
0060
0060
0060
00E0
01C0
0380
0700
0600
0000
0000
ENDCHAR
STARTCHAR U+002A
ENCODING 42
SWIDTH 1000 0
DWIDTH 16 0
BBX 16 16 0 -2
BITMAP
0000
0180
1998
1DB8
0FF0
07E0
03C0
03C0
07E0
0FF0
1DB8
1998
0180
0000
0000
0000
ENDCHAR
STARTCHAR U+002B
ENCODING 43
SWIDTH 1000 0
DWIDTH 16 0
BBX 16 16 0 -2
BITMAP
0000
0000
0180
0180
0180
0180
1FF8
1FF8
0180
0180
0180
0180
0000
0000
0000
0000
ENDCHAR
STARTCHAR U+002C
ENCODING 44
SWIDTH 1000 0
DWIDTH 16 0
BBX 16 16 0 -2
BITMAP
0000
0000
0000
0000
0000
0000
0000
0000
0000
0000
1800
3C00
3C00
1800
3000
0000
ENDCHAR
STARTCHAR U+002D
ENCODING 45
SWIDTH 1000 0
DWIDTH 16 0
BBX 16 16 0 -2
BITMAP
0000
0000
0000
0000
0000
0000
1FF8
1FF8
0000
0000
0000
0000
0000
0000
0000
0000
ENDCHAR
STARTCHAR U+002E
ENCODING 46
SWIDTH 1000 0
DWIDTH 16 0
BBX 16 16 0 -2
BITMAP
0000
0000
0000
0000
0000
0000
0000
0000
0000
0000
1800
3C00
3C00
1800
0000
0000
ENDCHAR
STARTCHAR U+002F
ENCODING 47
SWIDTH 1000 0
DWIDTH 16 0
BBX 16 16 0 -2
BITMAP
0006
000E
001C
0038
0070
00E0
01C0
0380
0700
0E00
1C00
3800
7000
6000
0000
0000
ENDCHAR
STARTCHAR U+0030
ENCODING 48
SWIDTH 1000 0
DWIDTH 16 0
BBX 16 16 0 -2
BITMAP
0FF0
1FF8
3E7C
3C3C
3C3C
3C3C
3C3C
3C3C
3C3C
3C3C
3C3C
3E7C
1FF8
0FF0
0000
0000
ENDCHAR
STARTCHAR U+0031
ENCODING 49
SWIDTH 1000 0
DWIDTH 16 0
BBX 16 16 0 -2
BITMAP
03C0
07C0
0FC0
0FC0
03C0
03C0
03C0
03C0
03C0
03C0
03C0
03C0
0FF0
0FF0
0000
0000
ENDCHAR
STARTCHAR U+0032
ENCODING 50
SWIDTH 1000 0
DWIDTH 16 0
BBX 16 16 0 -2
BITMAP
0FF0
1FF8
3E7C
3C3C
003C
007C
00F8
01F0
03E0
07C0
0F80
1F00
3FFC
3FFC
0000
0000
ENDCHAR
STARTCHAR U+0033
ENCODING 51
SWIDTH 1000 0
DWIDTH 16 0
BBX 16 16 0 -2
BITMAP
0FF0
1FF8
3E7C
3C3C
003C
007C
03F8
03F8
007C
003C
3C3C
3E7C
1FF8
0FF0
0000
0000
ENDCHAR
STARTCHAR U+0034
ENCODING 52
SWIDTH 1000 0
DWIDTH 16 0
BBX 16 16 0 -2
BITMAP
00F0
01F0
03F0
07F0
0FF0
0FF0
1EF0
1CF0
3CF0
3CF0
3FFC
3FFC
00F0
00F0
0000
0000
ENDCHAR
STARTCHAR U+0035
ENCODING 53
SWIDTH 1000 0
DWIDTH 16 0
BBX 16 16 0 -2
BITMAP
3FFC
3FFC
3C00
3C00
3FF0
3FF8
3E7C
3C3C
003C
003C
3C3C
3E7C
1FF8
0FF0
0000
0000
ENDCHAR
STARTCHAR U+0036
ENCODING 54
SWIDTH 1000 0
DWIDTH 16 0
BBX 16 16 0 -2
BITMAP
0FF0
1FF8
3E7C
3C3C
3C00
3FF0
3FF8
3E7C
3C3C
3C3C
3C3C
3E7C
1FF8
0FF0
0000
0000
ENDCHAR
STARTCHAR U+0037
ENCODING 55
SWIDTH 1000 0
DWIDTH 16 0
BBX 16 16 0 -2
BITMAP
3FFC
3FFC
003C
007C
00F8
01F0
03E0
03C0
03C0
03C0
03C0
03C0
03C0
03C0
0000
0000
ENDCHAR
STARTCHAR U+0038
ENCODING 56
SWIDTH 1000 0
DWIDTH 16 0
BBX 16 16 0 -2
BITMAP
0FF0
1FF8
3E7C
3C3C
3C3C
3E7C
1FF8
1FF8
3E7C
3C3C
3C3C
3E7C
1FF8
0FF0
0000
0000
ENDCHAR
STARTCHAR U+0039
ENCODING 57
SWIDTH 1000 0
DWIDTH 16 0
BBX 16 16 0 -2
BITMAP
0FF0
1FF8
3E7C
3C3C
3C3C
3C3C
3E7C
1FFC
0FFC
003C
3C3C
3E7C
1FF8
0FF0
0000
0000
ENDCHAR
STARTCHAR U+003A
ENCODING 58
SWIDTH 1000 0
DWIDTH 16 0
BBX 16 16 0 -2
BITMAP
0000
0180
03C0
03C0
0180
0000
0000
0000
0180
03C0
03C0
0180
0000
0000
0000
0000
ENDCHAR
STARTCHAR U+003B
ENCODING 59
SWIDTH 1000 0
DWIDTH 16 0
BBX 16 16 0 -2
BITMAP
0000
0180
03C0
03C0
0180
0000
0000
0000
0180
03C0
03C0
0180
0300
0000
0000
0000
ENDCHAR
STARTCHAR U+003C
ENCODING 60
SWIDTH 1000 0
DWIDTH 16 0
BBX 16 16 0 -2
BITMAP
0030
0070
00E0
01C0
0380
0700
0E00
0E00
0700
0380
01C0
00E0
0070
0030
0000
0000
ENDCHAR
STARTCHAR U+003D
ENCODING 61
SWIDTH 1000 0
DWIDTH 16 0
BBX 16 16 0 -2
BITMAP
0000
0000
0000
0000
0FF0
0FF0
0000
0000
0FF0
0FF0
0000
0000
0000
0000
0000
0000
ENDCHAR
STARTCHAR U+003E
ENCODING 62
SWIDTH 1000 0
DWIDTH 16 0
BBX 16 16 0 -2
BITMAP
0C00
0E00
0700
0380
01C0
00E0
0070
0070
00E0
01C0
0380
0700
0E00
0C00
0000
0000
ENDCHAR
STARTCHAR U+003F
ENCODING 63
SWIDTH 1000 0
DWIDTH 16 0
BBX 16 16 0 -2
BITMAP
0FF0
1FF8
3E7C
3C3C
003C
007C
00F8
01F0
03E0
03C0
03C0
0000
03C0
03C0
0000
0000
ENDCHAR
STARTCHAR U+0040
ENCODING 64
SWIDTH 1000 0
DWIDTH 16 0
BBX 16 16 0 -2
BITMAP
0FF0
1FF8
3C3C
39DC
33EC
366C
366C
366C
366C
33FC
39F8
3C00
1FF8
0FF8
0000
0000
ENDCHAR
STARTCHAR U+0041
ENCODING 65
SWIDTH 1000 0
DWIDTH 16 0
BBX 16 16 0 -2
BITMAP
0FF0
1FF8
3E7C
3C3C
3C3C
3C3C
3FFC
3FFC
3C3C
3C3C
3C3C
3C3C
3C3C
3C3C
0000
0000
ENDCHAR
STARTCHAR U+0042
ENCODING 66
SWIDTH 1000 0
DWIDTH 16 0
BBX 16 16 0 -2
BITMAP
3FF0
3FF8
3C7C
3C3C
3C3C
3C7C
3FF8
3FF8
3C7C
3C3C
3C3C
3C7C
3FF8
3FF0
0000
0000
ENDCHAR
STARTCHAR U+0043
ENCODING 67
SWIDTH 1000 0
DWIDTH 16 0
BBX 16 16 0 -2
BITMAP
0FF0
1FF8
3E7C
3C3C
3C00
3C00
3C00
3C00
3C00
3C00
3C3C
3E7C
1FF8
0FF0
0000
0000
ENDCHAR
STARTCHAR U+0044
ENCODING 68
SWIDTH 1000 0
DWIDTH 16 0
BBX 16 16 0 -2
BITMAP
3FF0
3FF8
3C7C
3C3C
3C3C
3C3C
3C3C
3C3C
3C3C
3C3C
3C3C
3C7C
3FF8
3FF0
0000
0000
ENDCHAR
STARTCHAR U+0045
ENCODING 69
SWIDTH 1000 0
DWIDTH 16 0
BBX 16 16 0 -2
BITMAP
3FFC
3FFC
3C00
3C00
3C00
3C00
3FF0
3FF0
3C00
3C00
3C00
3C00
3FFC
3FFC
0000
0000
ENDCHAR
STARTCHAR U+0046
ENCODING 70
SWIDTH 1000 0
DWIDTH 16 0
BBX 16 16 0 -2
BITMAP
3FFC
3FFC
3C00
3C00
3C00
3C00
3FF0
3FF0
3C00
3C00
3C00
3C00
3C00
3C00
0000
0000
ENDCHAR
STARTCHAR U+0047
ENCODING 71
SWIDTH 1000 0
DWIDTH 16 0
BBX 16 16 0 -2
BITMAP
0FF0
1FF8
3E7C
3C3C
3C00
3C00
3CFC
3CFC
3C3C
3C3C
3C3C
3E7C
1FF8
0FF0
0000
0000
ENDCHAR
STARTCHAR U+0048
ENCODING 72
SWIDTH 1000 0
DWIDTH 16 0
BBX 16 16 0 -2
BITMAP
3C3C
3C3C
3C3C
3C3C
3C3C
3C3C
3FFC
3FFC
3C3C
3C3C
3C3C
3C3C
3C3C
3C3C
0000
0000
ENDCHAR
STARTCHAR U+0049
ENCODING 73
SWIDTH 1000 0
DWIDTH 16 0
BBX 16 16 0 -2
BITMAP
0FF0
0FF0
03C0
03C0
03C0
03C0
03C0
03C0
03C0
03C0
03C0
03C0
0FF0
0FF0
0000
0000
ENDCHAR
STARTCHAR U+004A
ENCODING 74
SWIDTH 1000 0
DWIDTH 16 0
BBX 16 16 0 -2
BITMAP
003C
003C
003C
003C
003C
003C
003C
003C
003C
003C
3C3C
3E7C
1FF8
0FF0
0000
0000
ENDCHAR
STARTCHAR U+004B
ENCODING 75
SWIDTH 1000 0
DWIDTH 16 0
BBX 16 16 0 -2
BITMAP
781E
783E
787C
78F8
79F0
7FE0
7FC0
7FC0
7FE0
79F0
78F8
787C
783E
781E
0000
0000
ENDCHAR
STARTCHAR U+004C
ENCODING 76
SWIDTH 1000 0
DWIDTH 16 0
BBX 16 16 0 -2
BITMAP
3C00
3C00
3C00
3C00
3C00
3C00
3C00
3C00
3C00
3C00
3C00
3C00
3FFC
3FFC
0000
0000
ENDCHAR
STARTCHAR U+004D
ENCODING 77
SWIDTH 1000 0
DWIDTH 16 0
BBX 16 16 0 -2
BITMAP
781E
7C3E
7E7E
7FFE
7FFE
7FFE
7FFE
7FFE
7BDE
799E
781E
781E
781E
781E
0000
0000
ENDCHAR
STARTCHAR U+004E
ENCODING 78
SWIDTH 1000 0
DWIDTH 16 0
BBX 16 16 0 -2
BITMAP
3C3C
3E3C
3F3C
3F3C
3FBC
3FBC
3FFC
3FFC
3DFC
3DFC
3CFC
3CFC
3C7C
3C3C
0000
0000
ENDCHAR
STARTCHAR U+004F
ENCODING 79
SWIDTH 1000 0
DWIDTH 16 0
BBX 16 16 0 -2
BITMAP
0FF0
1FF8
3E7C
3C3C
3C3C
3C3C
3C3C
3C3C
3C3C
3C3C
3C3C
3E7C
1FF8
0FF0
0000
0000
ENDCHAR
STARTCHAR U+0050
ENCODING 80
SWIDTH 1000 0
DWIDTH 16 0
BBX 16 16 0 -2
BITMAP
3FF0
3FF8
3C7C
3C3C
3C3C
3C7C
3FF8
3FF0
3C00
3C00
3C00
3C00
3C00
3C00
0000
0000
ENDCHAR
STARTCHAR U+0051
ENCODING 81
SWIDTH 1000 0
DWIDTH 16 0
BBX 16 16 0 -2
BITMAP
0FF0
1FF8
3E7C
3C3C
3C3C
3C3C
3C3C
3C3C
3F3C
3FBC
3DF8
3CF0
1FFC
0FFC
0000
0000
ENDCHAR
STARTCHAR U+0052
ENCODING 82
SWIDTH 1000 0
DWIDTH 16 0
BBX 16 16 0 -2
BITMAP
3FF0
3FF8
3C7C
3C3C
3C3C
3C7C
3FF8
3FF0
3FC0
3FE0
3DF0
3CF8
3C7C
3C3C
0000
0000
ENDCHAR
STARTCHAR U+0053
ENCODING 83
SWIDTH 1000 0
DWIDTH 16 0
BBX 16 16 0 -2
BITMAP
0FE0
1FF0
3CF8
3C78
3C00
3E00
1FE0
0FF0
00F8
0078
3C78
3E78
1FF0
0FE0
0000
0000
ENDCHAR
STARTCHAR U+0054
ENCODING 84
SWIDTH 1000 0
DWIDTH 16 0
BBX 16 16 0 -2
BITMAP
3FFC
3FFC
03C0
03C0
03C0
03C0
03C0
03C0
03C0
03C0
03C0
03C0
03C0
03C0
0000
0000
ENDCHAR
STARTCHAR U+0055
ENCODING 85
SWIDTH 1000 0
DWIDTH 16 0
BBX 16 16 0 -2
BITMAP
3C3C
3C3C
3C3C
3C3C
3C3C
3C3C
3C3C
3C3C
3C3C
3C3C
3C3C
3E7C
1FF8
0FF0
0000
0000
ENDCHAR
STARTCHAR U+0056
ENCODING 86
SWIDTH 1000 0
DWIDTH 16 0
BBX 16 16 0 -2
BITMAP
3C3C
3C3C
3C3C
3C3C
3C3C
3C3C
3C3C
3C3C
3C3C
3E7C
1FF8
0FF0
07E0
03C0
0000
0000
ENDCHAR
STARTCHAR U+0057
ENCODING 87
SWIDTH 1000 0
DWIDTH 16 0
BBX 16 16 0 -2
BITMAP
781E
781E
781E
781E
799E
799E
7BDE
7FFE
7FFE
7FFE
7E7E
7C3E
381C
1008
0000
0000
ENDCHAR
STARTCHAR U+0058
ENCODING 88
SWIDTH 1000 0
DWIDTH 16 0
BBX 16 16 0 -2
BITMAP
3C3C
3C3C
3C3C
3E7C
1FF8
0FF0
03C0
03C0
0FF0
1FF8
3E7C
3C3C
3C3C
3C3C
0000
0000
ENDCHAR
STARTCHAR U+0059
ENCODING 89
SWIDTH 1000 0
DWIDTH 16 0
BBX 16 16 0 -2
BITMAP
3C3C
3C3C
3C3C
3C3C
3C3C
3E7C
1FF8
0FF0
07E0
03C0
03C0
03C0
03C0
03C0
0000
0000
ENDCHAR
STARTCHAR U+005A
ENCODING 90
SWIDTH 1000 0
DWIDTH 16 0
BBX 16 16 0 -2
BITMAP
3FFC
3FFC
3C3C
3C7C
00F8
01F0
03E0
07C0
0F80
1F00
3E3C
3C3C
3FFC
3FFC
0000
0000
ENDCHAR
STARTCHAR U+005B
ENCODING 91
SWIDTH 1000 0
DWIDTH 16 0
BBX 16 16 0 -2
BITMAP
3FC0
3FC0
3C00
3C00
3C00
3C00
3C00
3C00
3C00
3C00
3C00
3C00
3FC0
3FC0
0000
0000
ENDCHAR
STARTCHAR U+005C
ENCODING 92
SWIDTH 1000 0
DWIDTH 16 0
BBX 16 16 0 -2
BITMAP
6000
7000
3800
1C00
0E00
0700
0380
01C0
00E0
0070
0038
001C
000E
0006
0000
0000
ENDCHAR
STARTCHAR U+005D
ENCODING 93
SWIDTH 1000 0
DWIDTH 16 0
BBX 16 16 0 -2
BITMAP
03FC
03FC
003C
003C
003C
003C
003C
003C
003C
003C
003C
003C
03FC
03FC
0000
0000
ENDCHAR
STARTCHAR U+005E
ENCODING 94
SWIDTH 1000 0
DWIDTH 16 0
BBX 16 16 0 -2
BITMAP
0400
0E00
1F00
3B80
3180
0000
0000
0000
0000
0000
0000
0000
0000
0000
0000
0000
ENDCHAR
STARTCHAR U+005F
ENCODING 95
SWIDTH 1000 0
DWIDTH 16 0
BBX 16 16 0 -2
BITMAP
0000
0000
0000
0000
0000
0000
0000
0000
0000
0000
0000
0000
3FFC
3FFC
0000
0000
ENDCHAR
STARTCHAR U+0060
ENCODING 96
SWIDTH 1000 0
DWIDTH 16 0
BBX 16 16 0 -2
BITMAP
1800
3C00
3C00
1800
0C00
0000
0000
0000
0000
0000
0000
0000
0000
0000
0000
0000
ENDCHAR
STARTCHAR U+0061
ENCODING 97
SWIDTH 1000 0
DWIDTH 16 0
BBX 16 16 0 -2
BITMAP
0000
0000
0000
0000
0FF0
0FF8
003C
0FFC
1FFC
3E7C
3C3C
3E7C
1FFE
0FFE
0000
0000
ENDCHAR
STARTCHAR U+0062
ENCODING 98
SWIDTH 1000 0
DWIDTH 16 0
BBX 16 16 0 -2
BITMAP
3C00
3C00
3C00
3C00
3FF0
3FF8
3C7C
3C3C
3C3C
3C3C
3C3C
3C7C
3FF8
3FF0
0000
0000
ENDCHAR
STARTCHAR U+0063
ENCODING 99
SWIDTH 1000 0
DWIDTH 16 0
BBX 16 16 0 -2
BITMAP
0000
0000
0000
0000
0FF0
1FF8
3E7C
3C3C
3C00
3C00
3C3C
3E7C
1FF8
0FF0
0000
0000
ENDCHAR
STARTCHAR U+0064
ENCODING 100
SWIDTH 1000 0
DWIDTH 16 0
BBX 16 16 0 -2
BITMAP
003C
003C
003C
003C
0FFC
1FFC
3E3C
3C3C
3C3C
3C3C
3C3C
3E3C
1FFC
0FFC
0000
0000
ENDCHAR
STARTCHAR U+0065
ENCODING 101
SWIDTH 1000 0
DWIDTH 16 0
BBX 16 16 0 -2
BITMAP
0000
0000
0000
0000
0FF0
1FF8
3E7C
3C3C
3FFC
3FFC
3C00
3E00
1FF8
0FF0
0000
0000
ENDCHAR
STARTCHAR U+0066
ENCODING 102
SWIDTH 1000 0
DWIDTH 16 0
BBX 16 16 0 -2
BITMAP
00FC
01FC
03E0
03C0
3FFC
3FFC
03C0
03C0
03C0
03C0
03C0
03C0
03C0
03C0
0000
0000
ENDCHAR
STARTCHAR U+0067
ENCODING 103
SWIDTH 1000 0
DWIDTH 16 0
BBX 16 16 0 -2
BITMAP
0000
0000
0000
0000
0FFC
1FFC
3E7C
3C3C
3C3C
3E7C
1FFC
0FFC
003C
3C7C
3FF8
1FF0
ENDCHAR
STARTCHAR U+0068
ENCODING 104
SWIDTH 1000 0
DWIDTH 16 0
BBX 16 16 0 -2
BITMAP
3C00
3C00
3C00
3C00
3FF0
3FF8
3C7C
3C3C
3C3C
3C3C
3C3C
3C3C
3C3C
3C3C
0000
0000
ENDCHAR
STARTCHAR U+0069
ENCODING 105
SWIDTH 1000 0
DWIDTH 16 0
BBX 16 16 0 -2
BITMAP
03C0
03C0
0000
0000
03C0
03C0
03C0
03C0
03C0
03C0
03C0
03C0
03C0
03C0
0000
0000
ENDCHAR
STARTCHAR U+006A
ENCODING 106
SWIDTH 1000 0
DWIDTH 16 0
BBX 16 16 0 -2
BITMAP
0000
0000
003C
003C
0000
003C
003C
003C
003C
003C
003C
003C
3C3C
3E7C
1FF8
0FF0
ENDCHAR
STARTCHAR U+006B
ENCODING 107
SWIDTH 1000 0
DWIDTH 16 0
BBX 16 16 0 -2
BITMAP
3C00
3C00
3C00
3C00
3C3C
3C7C
3CF8
3FF0
3FE0
3FE0
3FF0
3CF8
3C7C
3C3C
0000
0000
ENDCHAR
STARTCHAR U+006C
ENCODING 108
SWIDTH 1000 0
DWIDTH 16 0
BBX 16 16 0 -2
BITMAP
03C0
03C0
03C0
03C0
03C0
03C0
03C0
03C0
03C0
03C0
03C0
03C0
03E0
01E0
0000
0000
ENDCHAR
STARTCHAR U+006D
ENCODING 109
SWIDTH 1000 0
DWIDTH 16 0
BBX 16 16 0 -2
BITMAP
0000
0000
0000
0000
3FF8
3FFC
39CE
39CE
39CE
39CE
39CE
39CE
39CE
39CE
0000
0000
ENDCHAR
STARTCHAR U+006E
ENCODING 110
SWIDTH 1000 0
DWIDTH 16 0
BBX 16 16 0 -2
BITMAP
0000
0000
0000
0000
3FF0
3FF8
3C7C
3C3C
3C3C
3C3C
3C3C
3C3C
3C3C
3C3C
0000
0000
ENDCHAR
STARTCHAR U+006F
ENCODING 111
SWIDTH 1000 0
DWIDTH 16 0
BBX 16 16 0 -2
BITMAP
0000
0000
0000
0000
0FF0
1FF8
3E7C
3C3C
3C3C
3C3C
3C3C
3E7C
1FF8
0FF0
0000
0000
ENDCHAR
STARTCHAR U+0070
ENCODING 112
SWIDTH 1000 0
DWIDTH 16 0
BBX 16 16 0 -2
BITMAP
0000
0000
0000
0000
3FF0
3FF8
3C3C
3C1C
3C1C
3C1C
3C3C
3FF8
3FF0
3C00
3C00
3C00
ENDCHAR
STARTCHAR U+0071
ENCODING 113
SWIDTH 1000 0
DWIDTH 16 0
BBX 16 16 0 -2
BITMAP
0000
0000
0000
0000
0FFC
1FFC
3C3C
383C
383C
383C
3C3C
1FFC
0FFC
003C
003C
003C
ENDCHAR
STARTCHAR U+0072
ENCODING 114
SWIDTH 1000 0
DWIDTH 16 0
BBX 16 16 0 -2
BITMAP
0000
0000
0000
0000
3CF0
3DF8
3F9C
3F0C
3E00
3C00
3C00
3C00
3C00
3C00
0000
0000
ENDCHAR
STARTCHAR U+0073
ENCODING 115
SWIDTH 1000 0
DWIDTH 16 0
BBX 16 16 0 -2
BITMAP
0000
0000
0000
0000
1FF8
3FFC
3C1C
3C00
3FF8
1FFC
003C
383C
3FFC
1FF8
0000
0000
ENDCHAR
STARTCHAR U+0074
ENCODING 116
SWIDTH 1000 0
DWIDTH 16 0
BBX 16 16 0 -2
BITMAP
03C0
03C0
03C0
03C0
1FF8
1FF8
03C0
03C0
03C0
03C0
03C0
03C0
03F0
01F0
0000
0000
ENDCHAR
STARTCHAR U+0075
ENCODING 117
SWIDTH 1000 0
DWIDTH 16 0
BBX 16 16 0 -2
BITMAP
0000
0000
0000
0000
3C3C
3C3C
3C3C
3C3C
3C3C
3C3C
3C3C
3E3C
1FFC
0FFC
0000
0000
ENDCHAR
STARTCHAR U+0076
ENCODING 118
SWIDTH 1000 0
DWIDTH 16 0
BBX 16 16 0 -2
BITMAP
0000
0000
0000
0000
3C3C
3C3C
3C3C
3C3C
3C3C
3E7C
1FF8
0FF0
07E0
03C0
0000
0000
ENDCHAR
STARTCHAR U+0077
ENCODING 119
SWIDTH 1000 0
DWIDTH 16 0
BBX 16 16 0 -2
BITMAP
0000
0000
0000
0000
781E
781E
799E
7BDE
7FFE
7FFE
7FFE
7E7E
7C3E
381C
0000
0000
ENDCHAR
STARTCHAR U+0078
ENCODING 120
SWIDTH 1000 0
DWIDTH 16 0
BBX 16 16 0 -2
BITMAP
0000
0000
0000
0000
381C
3C3C
1E78
0FF0
07E0
07E0
0FF0
1E78
3C3C
381C
0000
0000
ENDCHAR
STARTCHAR U+0079
ENCODING 121
SWIDTH 1000 0
DWIDTH 16 0
BBX 16 16 0 -2
BITMAP
0000
0000
0000
0000
3C3C
3C3C
3C3C
3C3C
3C3C
3E7C
1FF8
0FF0
07E0
03C0
3F80
3F00
ENDCHAR
STARTCHAR U+007A
ENCODING 122
SWIDTH 1000 0
DWIDTH 16 0
BBX 16 16 0 -2
BITMAP
0000
0000
0000
0000
3FFC
3FFC
00F8
01F0
03E0
07C0
0F80
1F00
3FFC
3FFC
0000
0000
ENDCHAR
STARTCHAR U+007B
ENCODING 123
SWIDTH 1000 0
DWIDTH 16 0
BBX 16 16 0 -2
BITMAP
0300
0700
0E00
0C00
0C00
1C00
3800
3800
1C00
0C00
0C00
0E00
0700
0300
0000
0000
ENDCHAR
STARTCHAR U+007C
ENCODING 124
SWIDTH 1000 0
DWIDTH 16 0
BBX 16 16 0 -2
BITMAP
0180
0180
0180
0180
0180
0180
0180
0180
0180
0180
0180
0180
0180
0180
0000
0000
ENDCHAR
STARTCHAR U+007D
ENCODING 125
SWIDTH 1000 0
DWIDTH 16 0
BBX 16 16 0 -2
BITMAP
0000
00C0
00E0
0070
0030
0030
0038
001C
001C
0038
0030
0030
0070
00E0
00C0
0000
ENDCHAR
STARTCHAR U+007E
ENCODING 126
SWIDTH 1000 0
DWIDTH 16 0
BBX 16 16 0 -2
BITMAP
0000
0000
0FCF
3CFC
0000
0000
0000
0000
0000
0000
0000
0000
0000
0000
0000
0000
ENDCHAR
ENDFONT
