STARTFONT 2.1
FONT -KN5000-Font9-medium-r-normal--16-160-72-72-c-110-iso8859-1
SIZE 16 72 72
FONTBOUNDINGBOX 11 16 0 -2
STARTPROPERTIES 5
FONT_ASCENT 2
FONT_DESCENT 2
PIXEL_SIZE 16
POINT_SIZE 160
DEFAULT_CHAR 32
ENDPROPERTIES
CHARS 95
STARTCHAR U+0020
ENCODING 32
SWIDTH 687 0
DWIDTH 11 0
BBX 11 16 0 -2
BITMAP
0000
0000
0000
0000
0000
0000
0000
0000
0000
0000
0000
0000
0000
0000
0000
0000
ENDCHAR
STARTCHAR U+0021
ENCODING 33
SWIDTH 687 0
DWIDTH 11 0
BBX 11 16 0 -2
BITMAP
0E00
0E00
0E00
0E00
0E00
0E00
0E00
0E00
0E00
0E00
0000
0000
0E00
0E00
0000
0000
ENDCHAR
STARTCHAR U+0022
ENCODING 34
SWIDTH 687 0
DWIDTH 11 0
BBX 11 16 0 -2
BITMAP
3180
7BC0
7BC0
3180
6300
0000
0000
0000
0000
0000
0000
0000
0000
0000
0000
0000
ENDCHAR
STARTCHAR U+0023
ENCODING 35
SWIDTH 687 0
DWIDTH 11 0
BBX 11 16 0 -2
BITMAP
1980
1980
1980
7FE0
7FE0
1980
1980
1980
1980
7FE0
7FE0
1980
1980
1980
0000
0000
ENDCHAR
STARTCHAR U+0024
ENCODING 36
SWIDTH 687 0
DWIDTH 11 0
BBX 11 16 0 -2
BITMAP
0600
1F80
3FC0
7FE0
76E0
7600
7E00
3F80
1FC0
07E0
06E0
76E0
7FE0
3FC0
1F80
0600
ENDCHAR
STARTCHAR U+0025
ENCODING 37
SWIDTH 687 0
DWIDTH 11 0
BBX 11 16 0 -2
BITMAP
0000
0000
3020
4860
48E0
49C0
3380
0700
0E00
1CC0
3920
7120
6120
40C0
0000
0000
ENDCHAR
STARTCHAR U+0026
ENCODING 38
SWIDTH 687 0
DWIDTH 11 0
BBX 11 16 0 -2
BITMAP
0E00
1F00
3B80
3180
3180
3B80
1F00
1E00
3F60
73E0
61C0
73C0
7FE0
3E60
0000
0000
ENDCHAR
STARTCHAR U+0027
ENCODING 39
SWIDTH 687 0
DWIDTH 11 0
BBX 11 16 0 -2
BITMAP
3000
7800
7800
3000
6000
0000
0000
0000
0000
0000
0000
0000
0000
0000
0000
0000
ENDCHAR
STARTCHAR U+0028
ENCODING 40
SWIDTH 687 0
DWIDTH 11 0
BBX 11 16 0 -2
BITMAP
0700
0E00
1C00
3800
3000
3000
3000
3000
3000
3000
3800
1C00
0E00
0700
0000
0000
ENDCHAR
STARTCHAR U+0029
ENCODING 41
SWIDTH 687 0
DWIDTH 11 0
BBX 11 16 0 -2
BITMAP
0E00
0700
0380
01C0
00C0
00C0
00C0
00C0
00C0
00C0
01C0
0380
0700
0E00
0000
0000
ENDCHAR
STARTCHAR U+002A
ENCODING 42
SWIDTH 687 0
DWIDTH 11 0
BBX 11 16 0 -2
BITMAP
0000
0000
0600
36C0
3FC0
1F80
0F00
0600
0F00
1F80
3FC0
36C0
0600
0000
0000
0000
ENDCHAR
STARTCHAR U+002B
ENCODING 43
SWIDTH 687 0
DWIDTH 11 0
BBX 11 16 0 -2
BITMAP
0000
0000
0000
0600
0600
0600
3FC0
3FC0
0600
0600
0600
0000
0000
0000
0000
0000
ENDCHAR
STARTCHAR U+002C
ENCODING 44
SWIDTH 687 0
DWIDTH 11 0
BBX 11 16 0 -2
BITMAP
0000
0000
0000
0000
0000
0000
0000
0000
0000
0000
3000
7800
7800
3000
6000
0000
ENDCHAR
STARTCHAR U+002D
ENCODING 45
SWIDTH 687 0
DWIDTH 11 0
BBX 11 16 0 -2
BITMAP
0000
0000
0000
0000
0000
0000
3FC0
3FC0
0000
0000
0000
0000
0000
0000
0000
0000
ENDCHAR
STARTCHAR U+002E
ENCODING 46
SWIDTH 687 0
DWIDTH 11 0
BBX 11 16 0 -2
BITMAP
0000
0000
0000
0000
0000
0000
0000
0000
0000
0000
3000
7800
7800
3000
0000
0000
ENDCHAR
STARTCHAR U+002F
ENCODING 47
SWIDTH 687 0
DWIDTH 11 0
BBX 11 16 0 -2
BITMAP
0000
0020
0060
00E0
01C0
0380
0700
0E00
1C00
3800
7000
6000
4000
0000
0000
0000
ENDCHAR
STARTCHAR U+0030
ENCODING 48
SWIDTH 687 0
DWIDTH 11 0
BBX 11 16 0 -2
BITMAP
1F80
3FC0
79E0
70E0
70E0
70E0
70E0
70E0
70E0
70E0
70E0
79E0
3FC0
1F80
0000
0000
ENDCHAR
STARTCHAR U+0031
ENCODING 49
SWIDTH 687 0
DWIDTH 11 0
BBX 11 16 0 -2
BITMAP
0600
0E00
1E00
1E00
0E00
0E00
0E00
0E00
0E00
0E00
0E00
0E00
1F00
1F00
0000
0000
ENDCHAR
STARTCHAR U+0032
ENCODING 50
SWIDTH 687 0
DWIDTH 11 0
BBX 11 16 0 -2
BITMAP
1F80
3FC0
79E0
70E0
00E0
01E0
03C0
0780
0F00
1E00
3C00
7800
7FE0
7FE0
0000
0000
ENDCHAR
STARTCHAR U+0033
ENCODING 51
SWIDTH 687 0
DWIDTH 11 0
BBX 11 16 0 -2
BITMAP
1F80
3FC0
79E0
70E0
00E0
01E0
0FC0
0FC0
01E0
00E0
70E0
79E0
3FC0
1F80
0000
0000
ENDCHAR
STARTCHAR U+0034
ENCODING 52
SWIDTH 687 0
DWIDTH 11 0
BBX 11 16 0 -2
BITMAP
0380
0780
0F80
0F80
1F80
1F80
3B80
3380
7380
7380
7FE0
7FE0
0380
0380
0000
0000
ENDCHAR
STARTCHAR U+0035
ENCODING 53
SWIDTH 687 0
DWIDTH 11 0
BBX 11 16 0 -2
BITMAP
7FE0
7FE0
7000
7000
7F80
7FC0
79E0
70E0
00E0
00E0
70E0
79E0
3FC0
1F80
0000
0000
ENDCHAR
STARTCHAR U+0036
ENCODING 54
SWIDTH 687 0
DWIDTH 11 0
BBX 11 16 0 -2
BITMAP
1F80
3FC0
79E0
70E0
7000
7F80
7FC0
79E0
70E0
70E0
70E0
79E0
3FC0
1F80
0000
0000
ENDCHAR
STARTCHAR U+0037
ENCODING 55
SWIDTH 687 0
DWIDTH 11 0
BBX 11 16 0 -2
BITMAP
7FE0
7FE0
01E0
01E0
03C0
0780
0F00
0E00
0E00
0E00
0E00
0E00
0E00
0E00
0000
0000
ENDCHAR
STARTCHAR U+0038
ENCODING 56
SWIDTH 687 0
DWIDTH 11 0
BBX 11 16 0 -2
BITMAP
1F80
3FC0
79E0
70E0
70E0
79E0
3FC0
3FC0
79E0
70E0
70E0
79E0
3FC0
1F80
0000
0000
ENDCHAR
STARTCHAR U+0039
ENCODING 57
SWIDTH 687 0
DWIDTH 11 0
BBX 11 16 0 -2
BITMAP
1F80
3FC0
79E0
70E0
70E0
70E0
79E0
3FE0
1FE0
00E0
70E0
79E0
3FC0
1F80
0000
0000
ENDCHAR
STARTCHAR U+003A
ENCODING 58
SWIDTH 687 0
DWIDTH 11 0
BBX 11 16 0 -2
BITMAP
0000
0000
0600
0F00
0F00
0600
0000
0000
0600
0F00
0F00
0600
0000
0000
0000
0000
ENDCHAR
STARTCHAR U+003B
ENCODING 59
SWIDTH 687 0
DWIDTH 11 0
BBX 11 16 0 -2
BITMAP
0000
0000
0600
0F00
0F00
0600
0000
0000
0600
0F00
0F00
0600
0C00
0000
0000
0000
ENDCHAR
STARTCHAR U+003C
ENCODING 60
SWIDTH 687 0
DWIDTH 11 0
BBX 11 16 0 -2
BITMAP
00C0
01C0
0380
0700
0E00
1C00
3800
3800
1C00
0E00
0700
0380
01C0
00C0
0000
0000
ENDCHAR
STARTCHAR U+003D
ENCODING 61
SWIDTH 687 0
DWIDTH 11 0
BBX 11 16 0 -2
BITMAP
0000
0000
0000
0000
3FC0
3FC0
0000
0000
3FC0
3FC0
0000
0000
0000
0000
0000
0000
ENDCHAR
STARTCHAR U+003E
ENCODING 62
SWIDTH 687 0
DWIDTH 11 0
BBX 11 16 0 -2
BITMAP
3000
3800
1C00
0E00
0700
0380
01C0
01C0
0380
0700
0E00
1C00
3800
3000
0000
0000
ENDCHAR
STARTCHAR U+003F
ENCODING 63
SWIDTH 687 0
DWIDTH 11 0
BBX 11 16 0 -2
BITMAP
1F80
3FC0
79E0
70E0
00E0
01E0
03C0
0780
0F00
0E00
0E00
0000
0E00
0E00
0000
0000
ENDCHAR
STARTCHAR U+0040
ENCODING 64
SWIDTH 687 0
DWIDTH 11 0
BBX 11 16 0 -2
BITMAP
1F80
3FC0
70E0
6E60
7F60
7360
7360
7360
7360
7FC0
6F80
7000
3FC0
1FC0
0000
0000
ENDCHAR
STARTCHAR U+0041
ENCODING 65
SWIDTH 687 0
DWIDTH 11 0
BBX 11 16 0 -2
BITMAP
1F80
3FC0
79E0
70E0
70E0
70E0
7FE0
7FE0
70E0
70E0
70E0
70E0
70E0
70E0
0000
0000
ENDCHAR
STARTCHAR U+0042
ENCODING 66
SWIDTH 687 0
DWIDTH 11 0
BBX 11 16 0 -2
BITMAP
7F80
7FC0
71E0
70E0
70E0
71E0
7FC0
7FC0
71E0
70E0
70E0
71E0
7FC0
7F80
0000
0000
ENDCHAR
STARTCHAR U+0043
ENCODING 67
SWIDTH 687 0
DWIDTH 11 0
BBX 11 16 0 -2
BITMAP
1F80
3FC0
79E0
70E0
7000
7000
7000
7000
7000
7000
70E0
79E0
3FC0
1F80
0000
0000
ENDCHAR
STARTCHAR U+0044
ENCODING 68
SWIDTH 687 0
DWIDTH 11 0
BBX 11 16 0 -2
BITMAP
7F80
7FC0
71E0
70E0
70E0
70E0
70E0
70E0
70E0
70E0
70E0
71E0
7FC0
7F80
0000
0000
ENDCHAR
STARTCHAR U+0045
ENCODING 69
SWIDTH 687 0
DWIDTH 11 0
BBX 11 16 0 -2
BITMAP
7FE0
7FE0
7000
7000
7000
7000
7F80
7F80
7000
7000
7000
7000
7FE0
7FE0
0000
0000
ENDCHAR
STARTCHAR U+0046
ENCODING 70
SWIDTH 687 0
DWIDTH 11 0
BBX 11 16 0 -2
BITMAP
7FE0
7FE0
7000
7000
7000
7000
7F80
7F80
7000
7000
7000
7000
7000
7000
0000
0000
ENDCHAR
STARTCHAR U+0047
ENCODING 71
SWIDTH 687 0
DWIDTH 11 0
BBX 11 16 0 -2
BITMAP
1F80
3FC0
79E0
70E0
7000
7000
77E0
77E0
70E0
70E0
70E0
79E0
3FC0
1F80
0000
0000
ENDCHAR
STARTCHAR U+0048
ENCODING 72
SWIDTH 687 0
DWIDTH 11 0
BBX 11 16 0 -2
BITMAP
70E0
70E0
70E0
70E0
70E0
70E0
7FE0
7FE0
70E0
70E0
70E0
70E0
70E0
70E0
0000
0000
ENDCHAR
STARTCHAR U+0049
ENCODING 73
SWIDTH 687 0
DWIDTH 11 0
BBX 11 16 0 -2
BITMAP
1F00
1F00
0E00
0E00
0E00
0E00
0E00
0E00
0E00
0E00
0E00
0E00
1F00
1F00
0000
0000
ENDCHAR
STARTCHAR U+004A
ENCODING 74
SWIDTH 687 0
DWIDTH 11 0
BBX 11 16 0 -2
BITMAP
00E0
00E0
00E0
00E0
00E0
00E0
00E0
00E0
00E0
00E0
70E0
79E0
3FC0
1F80
0000
0000
ENDCHAR
STARTCHAR U+004B
ENCODING 75
SWIDTH 687 0
DWIDTH 11 0
BBX 11 16 0 -2
BITMAP
70E0
71E0
73C0
7780
7F00
7E00
7C00
7C00
7E00
7F00
7780
73C0
71E0
70E0
0000
0000
ENDCHAR
STARTCHAR U+004C
ENCODING 76
SWIDTH 687 0
DWIDTH 11 0
BBX 11 16 0 -2
BITMAP
7000
7000
7000
7000
7000
7000
7000
7000
7000
7000
7000
7000
7FE0
7FE0
0000
0000
ENDCHAR
STARTCHAR U+004D
ENCODING 77
SWIDTH 687 0
DWIDTH 11 0
BBX 11 16 0 -2
BITMAP
70E0
79E0
7FE0
7FE0
7FE0
7FE0
7FE0
76E0
76E0
70E0
70E0
70E0
70E0
70E0
0000
0000
ENDCHAR
STARTCHAR U+004E
ENCODING 78
SWIDTH 687 0
DWIDTH 11 0
BBX 11 16 0 -2
BITMAP
70E0
78E0
78E0
7CE0
7CE0
7EE0
7FE0
7FE0
77E0
73E0
73E0
71E0
71E0
70E0
0000
0000
ENDCHAR
STARTCHAR U+004F
ENCODING 79
SWIDTH 687 0
DWIDTH 11 0
BBX 11 16 0 -2
BITMAP
1F80
3FC0
79E0
70E0
70E0
70E0
70E0
70E0
70E0
70E0
70E0
79E0
3FC0
1F80
0000
0000
ENDCHAR
STARTCHAR U+0050
ENCODING 80
SWIDTH 687 0
DWIDTH 11 0
BBX 11 16 0 -2
BITMAP
7F80
7FC0
71E0
70E0
70E0
71E0
7FC0
7F80
7000
7000
7000
7000
7000
7000
0000
0000
ENDCHAR
STARTCHAR U+0051
ENCODING 81
SWIDTH 687 0
DWIDTH 11 0
BBX 11 16 0 -2
BITMAP
1F80
3FC0
79E0
70E0
70E0
70E0
70E0
70E0
7CE0
7EE0
77C0
7B80
3FE0
1FE0
0000
0000
ENDCHAR
STARTCHAR U+0052
ENCODING 82
SWIDTH 687 0
DWIDTH 11 0
BBX 11 16 0 -2
BITMAP
7F80
7FC0
71E0
70E0
70E0
71E0
7FC0
7F80
7E00
7F00
7780
73C0
71E0
70E0
0000
0000
ENDCHAR
STARTCHAR U+0053
ENCODING 83
SWIDTH 687 0
DWIDTH 11 0
BBX 11 16 0 -2
BITMAP
1F80
3FC0
79E0
70E0
7000
7800
3F80
1FC0
01E0
00E0
70E0
79E0
3FC0
1F80
0000
0000
ENDCHAR
STARTCHAR U+0054
ENCODING 84
SWIDTH 687 0
DWIDTH 11 0
BBX 11 16 0 -2
BITMAP
7FC0
7FC0
0E00
0E00
0E00
0E00
0E00
0E00
0E00
0E00
0E00
0E00
0E00
0E00
0000
0000
ENDCHAR
STARTCHAR U+0055
ENCODING 85
SWIDTH 687 0
DWIDTH 11 0
BBX 11 16 0 -2
BITMAP
70E0
70E0
70E0
70E0
70E0
70E0
70E0
70E0
70E0
70E0
70E0
79E0
3FC0
1F80
0000
0000
ENDCHAR
STARTCHAR U+0056
ENCODING 86
SWIDTH 687 0
DWIDTH 11 0
BBX 11 16 0 -2
BITMAP
70E0
70E0
70E0
70E0
70E0
70E0
70E0
70E0
70E0
79E0
3FC0
1F80
0F00
0600
0000
0000
ENDCHAR
STARTCHAR U+0057
ENCODING 87
SWIDTH 687 0
DWIDTH 11 0
BBX 11 16 0 -2
BITMAP
70E0
70E0
70E0
70E0
70E0
70E0
76E0
76E0
76E0
76E0
7FE0
7FE0
39C0
1080
0000
0000
ENDCHAR
STARTCHAR U+0058
ENCODING 88
SWIDTH 687 0
DWIDTH 11 0
BBX 11 16 0 -2
BITMAP
70E0
70E0
70E0
79E0
3FC0
1F80
0F00
0F00
1F80
3FC0
79E0
70E0
70E0
70E0
0000
0000
ENDCHAR
STARTCHAR U+0059
ENCODING 89
SWIDTH 687 0
DWIDTH 11 0
BBX 11 16 0 -2
BITMAP
71C0
71C0
71C0
71C0
71C0
7BC0
3F80
1F00
0E00
0E00
0E00
0E00
0E00
0E00
0000
0000
ENDCHAR
STARTCHAR U+005A
ENCODING 90
SWIDTH 687 0
DWIDTH 11 0
BBX 11 16 0 -2
BITMAP
7FE0
7FE0
01E0
01E0
03E0
07C0
0F80
1F00
3E00
7C00
7800
7800
7FE0
7FE0
0000
0000
ENDCHAR
STARTCHAR U+005B
ENCODING 91
SWIDTH 687 0
DWIDTH 11 0
BBX 11 16 0 -2
BITMAP
1F80
1F80
1C00
1C00
1C00
1C00
1C00
1C00
1C00
1C00
1C00
1C00
1F80
1F80
0000
0000
ENDCHAR
STARTCHAR U+005C
ENCODING 92
SWIDTH 687 0
DWIDTH 11 0
BBX 11 16 0 -2
BITMAP
0000
4000
6000
7000
3800
1C00
0E00
0700
0380
01C0
00E0
0060
0020
0000
0000
0000
ENDCHAR
STARTCHAR U+005D
ENCODING 93
SWIDTH 687 0
DWIDTH 11 0
BBX 11 16 0 -2
BITMAP
1F80
1F80
0380
0380
0380
0380
0380
0380
0380
0380
0380
0380
1F80
1F80
0000
0000
ENDCHAR
STARTCHAR U+005E
ENCODING 94
SWIDTH 687 0
DWIDTH 11 0
BBX 11 16 0 -2
BITMAP
1800
3C00
6600
0000
0000
0000
0000
0000
0000
0000
0000
0000
0000
0000
0000
0000
ENDCHAR
STARTCHAR U+005F
ENCODING 95
SWIDTH 687 0
DWIDTH 11 0
BBX 11 16 0 -2
BITMAP
0000
0000
0000
0000
0000
0000
0000
0000
0000
0000
0000
0000
7FE0
7FE0
0000
0000
ENDCHAR
STARTCHAR U+0060
ENCODING 96
SWIDTH 687 0
DWIDTH 11 0
BBX 11 16 0 -2
BITMAP
3000
7800
7800
3000
1800
0000
0000
0000
0000
0000
0000
0000
0000
0000
0000
0000
ENDCHAR
STARTCHAR U+0061
ENCODING 97
SWIDTH 687 0
DWIDTH 11 0
BBX 11 16 0 -2
BITMAP
0000
0000
0000
0000
1F80
1FC0
00E0
1FE0
3FE0
79E0
70E0
79E0
3FE0
1FE0
0000
0000
ENDCHAR
STARTCHAR U+0062
ENCODING 98
SWIDTH 687 0
DWIDTH 11 0
BBX 11 16 0 -2
BITMAP
7000
7000
7000
7000
7F80
7FC0
71E0
70E0
70E0
70E0
70E0
71E0
7FC0
7F80
0000
0000
ENDCHAR
STARTCHAR U+0063
ENCODING 99
SWIDTH 687 0
DWIDTH 11 0
BBX 11 16 0 -2
BITMAP
0000
0000
0000
0000
1F80
3FC0
79E0
70E0
7000
7000
70E0
79E0
3FC0
1F80
0000
0000
ENDCHAR
STARTCHAR U+0064
ENCODING 100
SWIDTH 687 0
DWIDTH 11 0
BBX 11 16 0 -2
BITMAP
00E0
00E0
00E0
00E0
1FE0
3FE0
78E0
70E0
70E0
70E0
70E0
78E0
3FE0
1FE0
0000
0000
ENDCHAR
STARTCHAR U+0065
ENCODING 101
SWIDTH 687 0
DWIDTH 11 0
BBX 11 16 0 -2
BITMAP
0000
0000
0000
0000
1F80
3FC0
79E0
70E0
7FE0
7FE0
7000
7800
3FC0
1F80
0000
0000
ENDCHAR
STARTCHAR U+0066
ENCODING 102
SWIDTH 687 0
DWIDTH 11 0
BBX 11 16 0 -2
BITMAP
03C0
07C0
0F00
0E00
7FC0
7FC0
0E00
0E00
0E00
0E00
0E00
0E00
0E00
0E00
0000
0000
ENDCHAR
STARTCHAR U+0067
ENCODING 103
SWIDTH 687 0
DWIDTH 11 0
BBX 11 16 0 -2
BITMAP
0000
0000
0000
0000
1FE0
3FE0
79E0
70E0
70E0
79E0
3FE0
1FE0
00E0
71E0
7FC0
3F80
ENDCHAR
STARTCHAR U+0068
ENCODING 104
SWIDTH 687 0
DWIDTH 11 0
BBX 11 16 0 -2
BITMAP
7000
7000
7000
7000
7F80
7FC0
71E0
70E0
70E0
70E0
70E0
70E0
70E0
70E0
0000
0000
ENDCHAR
STARTCHAR U+0069
ENCODING 105
SWIDTH 687 0
DWIDTH 11 0
BBX 11 16 0 -2
BITMAP
0E00
0E00
0000
0000
0E00
0E00
0E00
0E00
0E00
0E00
0E00
0E00
0E00
0E00
0000
0000
ENDCHAR
STARTCHAR U+006A
ENCODING 106
SWIDTH 687 0
DWIDTH 11 0
BBX 11 16 0 -2
BITMAP
0000
0000
00E0
00E0
0000
00E0
00E0
00E0
00E0
00E0
00E0
00E0
70E0
79E0
3FC0
1F80
ENDCHAR
STARTCHAR U+006B
ENCODING 107
SWIDTH 687 0
DWIDTH 11 0
BBX 11 16 0 -2
BITMAP
7000
7000
7000
7000
70E0
71E0
73C0
7780
7F00
7F00
7780
73C0
71E0
70E0
0000
0000
ENDCHAR
STARTCHAR U+006C
ENCODING 108
SWIDTH 687 0
DWIDTH 11 0
BBX 11 16 0 -2
BITMAP
0E00
0E00
0E00
0E00
0E00
0E00
0E00
0E00
0E00
0E00
0E00
0E00
0F00
0700
0000
0000
ENDCHAR
STARTCHAR U+006D
ENCODING 109
SWIDTH 687 0
DWIDTH 11 0
BBX 11 16 0 -2
BITMAP
0000
0000
0000
0000
7F80
7FC0
76E0
76E0
76E0
76E0
76E0
76E0
76E0
76E0
0000
0000
ENDCHAR
STARTCHAR U+006E
ENCODING 110
SWIDTH 687 0
DWIDTH 11 0
BBX 11 16 0 -2
BITMAP
0000
0000
0000
0000
7F80
7FC0
71E0
70E0
70E0
70E0
70E0
70E0
70E0
70E0
0000
0000
ENDCHAR
STARTCHAR U+006F
ENCODING 111
SWIDTH 687 0
DWIDTH 11 0
BBX 11 16 0 -2
BITMAP
0000
0000
0000
0000
1F80
3FC0
79E0
70E0
70E0
70E0
70E0
79E0
3FC0
1F80
0000
0000
ENDCHAR
STARTCHAR U+0070
ENCODING 112
SWIDTH 687 0
DWIDTH 11 0
BBX 11 16 0 -2
BITMAP
0000
0000
0000
0000
7F80
7FC0
71E0
70E0
70E0
70E0
71E0
7FC0
7F80
7000
7000
7000
ENDCHAR
STARTCHAR U+0071
ENCODING 113
SWIDTH 687 0
DWIDTH 11 0
BBX 11 16 0 -2
BITMAP
0000
0000
0000
0000
1FE0
3FE0
78E0
70E0
70E0
70E0
78E0
3FE0
1FE0
00E0
00E0
00E0
ENDCHAR
STARTCHAR U+0072
ENCODING 114
SWIDTH 687 0
DWIDTH 11 0
BBX 11 16 0 -2
BITMAP
0000
0000
0000
0000
7380
77C0
7EE0
7C60
7800
7000
7000
7000
7000
7000
0000
0000
ENDCHAR
STARTCHAR U+0073
ENCODING 115
SWIDTH 687 0
DWIDTH 11 0
BBX 11 16 0 -2
BITMAP
0000
0000
0000
0000
3FC0
7FE0
70E0
7000
7FC0
3FE0
00E0
70E0
7FE0
3FC0
0000
0000
ENDCHAR
STARTCHAR U+0074
ENCODING 116
SWIDTH 687 0
DWIDTH 11 0
BBX 11 16 0 -2
BITMAP
0E00
0E00
0E00
0E00
7FC0
7FC0
0E00
0E00
0E00
0E00
0E00
0E00
0F80
0780
0000
0000
ENDCHAR
STARTCHAR U+0075
ENCODING 117
SWIDTH 687 0
DWIDTH 11 0
BBX 11 16 0 -2
BITMAP
0000
0000
0000
0000
70E0
70E0
70E0
70E0
70E0
70E0
70E0
78E0
3FE0
1FE0
0000
0000
ENDCHAR
STARTCHAR U+0076
ENCODING 118
SWIDTH 687 0
DWIDTH 11 0
BBX 11 16 0 -2
BITMAP
0000
0000
0000
0000
70E0
70E0
70E0
70E0
70E0
79E0
3FC0
1F80
0F00
0600
0000
0000
ENDCHAR
STARTCHAR U+0077
ENCODING 119
SWIDTH 687 0
DWIDTH 11 0
BBX 11 16 0 -2
BITMAP
0000
0000
0000
0000
70E0
70E0
70E0
76E0
76E0
76E0
7FE0
7FE0
39C0
1080
0000
0000
ENDCHAR
STARTCHAR U+0078
ENCODING 120
SWIDTH 687 0
DWIDTH 11 0
BBX 11 16 0 -2
BITMAP
0000
0000
0000
0000
70E0
70E0
79E0
3FC0
0F00
0F00
3FC0
79E0
70E0
70E0
0000
0000
ENDCHAR
STARTCHAR U+0079
ENCODING 121
SWIDTH 687 0
DWIDTH 11 0
BBX 11 16 0 -2
BITMAP
0000
0000
0000
0000
70E0
70E0
70E0
70E0
70E0
79E0
3FE0
1FC0
0F80
0700
7E00
7C00
ENDCHAR
STARTCHAR U+007A
ENCODING 122
SWIDTH 687 0
DWIDTH 11 0
BBX 11 16 0 -2
BITMAP
0000
0000
0000
0000
7FE0
7FE0
01E0
03C0
0780
0F00
1E00
3C00
7FE0
7FE0
0000
0000
ENDCHAR
STARTCHAR U+007B
ENCODING 123
SWIDTH 687 0
DWIDTH 11 0
BBX 11 16 0 -2
BITMAP
0300
0700
0E00
0C00
0C00
1C00
3800
3800
1C00
0C00
0C00
0E00
0700
0300
0000
0000
ENDCHAR
STARTCHAR U+007C
ENCODING 124
SWIDTH 687 0
DWIDTH 11 0
BBX 11 16 0 -2
BITMAP
0600
0600
0600
0600
0600
0600
0600
0600
0600
0600
0600
0600
0600
0600
0000
0000
ENDCHAR
STARTCHAR U+007D
ENCODING 125
SWIDTH 687 0
DWIDTH 11 0
BBX 11 16 0 -2
BITMAP
1800
1C00
0E00
0600
0600
0700
0380
0380
0700
0600
0600
0E00
1C00
1800
0000
0000
ENDCHAR
STARTCHAR U+007E
ENCODING 126
SWIDTH 687 0
DWIDTH 11 0
BBX 11 16 0 -2
BITMAP
1C60
3EE0
77C0
6380
0000
0000
0000
0000
0000
0000
0000
0000
0000
0000
0000
0000
ENDCHAR
ENDFONT
