STARTFONT 2.1
FONT -KN5000-Font3-medium-r-normal--8-80-72-72-c-60-iso8859-1
SIZE 8 72 72
FONTBOUNDINGBOX 6 8 0 -1
STARTPROPERTIES 5
FONT_ASCENT 1
FONT_DESCENT 1
PIXEL_SIZE 8
POINT_SIZE 80
DEFAULT_CHAR 32
ENDPROPERTIES
CHARS 95
STARTCHAR U+0020
ENCODING 32
SWIDTH 750 0
DWIDTH 6 0
BBX 6 8 0 -1
BITMAP
00
00
00
00
00
00
00
00
ENDCHAR
STARTCHAR U+0021
ENCODING 33
SWIDTH 750 0
DWIDTH 6 0
BBX 6 8 0 -1
BITMAP
10
10
10
10
10
00
10
00
ENDCHAR
STARTCHAR U+0022
ENCODING 34
SWIDTH 750 0
DWIDTH 6 0
BBX 6 8 0 -1
BITMAP
00
50
50
00
00
00
00
00
ENDCHAR
STARTCHAR U+0023
ENCODING 35
SWIDTH 750 0
DWIDTH 6 0
BBX 6 8 0 -1
BITMAP
28
28
7C
28
7C
28
28
00
ENDCHAR
STARTCHAR U+0024
ENCODING 36
SWIDTH 750 0
DWIDTH 6 0
BBX 6 8 0 -1
BITMAP
38
54
50
38
14
54
38
00
ENDCHAR
STARTCHAR U+0025
ENCODING 37
SWIDTH 750 0
DWIDTH 6 0
BBX 6 8 0 -1
BITMAP
00
24
58
30
18
34
48
00
ENDCHAR
STARTCHAR U+0026
ENCODING 38
SWIDTH 750 0
DWIDTH 6 0
BBX 6 8 0 -1
BITMAP
30
48
50
20
54
48
34
00
ENDCHAR
STARTCHAR U+0027
ENCODING 39
SWIDTH 750 0
DWIDTH 6 0
BBX 6 8 0 -1
BITMAP
60
20
40
00
00
00
00
00
ENDCHAR
STARTCHAR U+0028
ENCODING 40
SWIDTH 750 0
DWIDTH 6 0
BBX 6 8 0 -1
BITMAP
10
20
40
40
40
20
10
00
ENDCHAR
STARTCHAR U+0029
ENCODING 41
SWIDTH 750 0
DWIDTH 6 0
BBX 6 8 0 -1
BITMAP
20
10
08
08
08
10
20
00
ENDCHAR
STARTCHAR U+002A
ENCODING 42
SWIDTH 750 0
DWIDTH 6 0
BBX 6 8 0 -1
BITMAP
00
10
54
38
54
10
00
00
ENDCHAR
STARTCHAR U+002B
ENCODING 43
SWIDTH 750 0
DWIDTH 6 0
BBX 6 8 0 -1
BITMAP
00
10
10
7C
10
10
00
00
ENDCHAR
STARTCHAR U+002C
ENCODING 44
SWIDTH 750 0
DWIDTH 6 0
BBX 6 8 0 -1
BITMAP
00
00
00
00
20
20
40
00
ENDCHAR
STARTCHAR U+002D
ENCODING 45
SWIDTH 750 0
DWIDTH 6 0
BBX 6 8 0 -1
BITMAP
00
00
00
7C
00
00
00
00
ENDCHAR
STARTCHAR U+002E
ENCODING 46
SWIDTH 750 0
DWIDTH 6 0
BBX 6 8 0 -1
BITMAP
00
00
00
00
00
20
00
00
ENDCHAR
STARTCHAR U+002F
ENCODING 47
SWIDTH 750 0
DWIDTH 6 0
BBX 6 8 0 -1
BITMAP
00
04
08
10
20
40
00
00
ENDCHAR
STARTCHAR U+0030
ENCODING 48
SWIDTH 750 0
DWIDTH 6 0
BBX 6 8 0 -1
BITMAP
38
44
4C
54
64
44
38
00
ENDCHAR
STARTCHAR U+0031
ENCODING 49
SWIDTH 750 0
DWIDTH 6 0
BBX 6 8 0 -1
BITMAP
10
30
10
10
10
10
38
00
ENDCHAR
STARTCHAR U+0032
ENCODING 50
SWIDTH 750 0
DWIDTH 6 0
BBX 6 8 0 -1
BITMAP
38
44
04
08
10
20
7C
00
ENDCHAR
STARTCHAR U+0033
ENCODING 51
SWIDTH 750 0
DWIDTH 6 0
BBX 6 8 0 -1
BITMAP
38
44
04
38
04
44
38
00
ENDCHAR
STARTCHAR U+0034
ENCODING 52
SWIDTH 750 0
DWIDTH 6 0
BBX 6 8 0 -1
BITMAP
08
18
28
48
7C
08
08
00
ENDCHAR
STARTCHAR U+0035
ENCODING 53
SWIDTH 750 0
DWIDTH 6 0
BBX 6 8 0 -1
BITMAP
7C
40
78
04
04
44
38
00
ENDCHAR
STARTCHAR U+0036
ENCODING 54
SWIDTH 750 0
DWIDTH 6 0
BBX 6 8 0 -1
BITMAP
38
40
78
44
44
44
38
00
ENDCHAR
STARTCHAR U+0037
ENCODING 55
SWIDTH 750 0
DWIDTH 6 0
BBX 6 8 0 -1
BITMAP
7C
04
04
08
10
10
10
00
ENDCHAR
STARTCHAR U+0038
ENCODING 56
SWIDTH 750 0
DWIDTH 6 0
BBX 6 8 0 -1
BITMAP
38
44
44
38
44
44
38
00
ENDCHAR
STARTCHAR U+0039
ENCODING 57
SWIDTH 750 0
DWIDTH 6 0
BBX 6 8 0 -1
BITMAP
38
44
44
44
3C
04
38
00
ENDCHAR
STARTCHAR U+003A
ENCODING 58
SWIDTH 750 0
DWIDTH 6 0
BBX 6 8 0 -1
BITMAP
00
00
10
00
10
00
00
00
ENDCHAR
STARTCHAR U+003B
ENCODING 59
SWIDTH 750 0
DWIDTH 6 0
BBX 6 8 0 -1
BITMAP
00
00
10
00
10
10
20
00
ENDCHAR
STARTCHAR U+003C
ENCODING 60
SWIDTH 750 0
DWIDTH 6 0
BBX 6 8 0 -1
BITMAP
00
08
10
20
10
08
00
00
ENDCHAR
STARTCHAR U+003D
ENCODING 61
SWIDTH 750 0
DWIDTH 6 0
BBX 6 8 0 -1
BITMAP
00
00
7C
00
7C
00
00
00
ENDCHAR
STARTCHAR U+003E
ENCODING 62
SWIDTH 750 0
DWIDTH 6 0
BBX 6 8 0 -1
BITMAP
00
20
10
08
10
20
00
00
ENDCHAR
STARTCHAR U+003F
ENCODING 63
SWIDTH 750 0
DWIDTH 6 0
BBX 6 8 0 -1
BITMAP
38
44
04
08
10
00
10
00
ENDCHAR
STARTCHAR U+0040
ENCODING 64
SWIDTH 750 0
DWIDTH 6 0
BBX 6 8 0 -1
BITMAP
38
44
74
54
78
40
38
00
ENDCHAR
STARTCHAR U+0041
ENCODING 65
SWIDTH 750 0
DWIDTH 6 0
BBX 6 8 0 -1
BITMAP
38
44
44
7C
44
44
44
00
ENDCHAR
STARTCHAR U+0042
ENCODING 66
SWIDTH 750 0
DWIDTH 6 0
BBX 6 8 0 -1
BITMAP
78
44
44
78
44
44
78
00
ENDCHAR
STARTCHAR U+0043
ENCODING 67
SWIDTH 750 0
DWIDTH 6 0
BBX 6 8 0 -1
BITMAP
38
44
40
40
40
44
38
00
ENDCHAR
STARTCHAR U+0044
ENCODING 68
SWIDTH 750 0
DWIDTH 6 0
BBX 6 8 0 -1
BITMAP
78
44
44
44
44
44
78
00
ENDCHAR
STARTCHAR U+0045
ENCODING 69
SWIDTH 750 0
DWIDTH 6 0
BBX 6 8 0 -1
BITMAP
7C
40
40
78
40
40
7C
00
ENDCHAR
STARTCHAR U+0046
ENCODING 70
SWIDTH 750 0
DWIDTH 6 0
BBX 6 8 0 -1
BITMAP
7C
40
40
78
40
40
40
00
ENDCHAR
STARTCHAR U+0047
ENCODING 71
SWIDTH 750 0
DWIDTH 6 0
BBX 6 8 0 -1
BITMAP
38
44
40
5C
44
44
3C
00
ENDCHAR
STARTCHAR U+0048
ENCODING 72
SWIDTH 750 0
DWIDTH 6 0
BBX 6 8 0 -1
BITMAP
44
44
44
7C
44
44
44
00
ENDCHAR
STARTCHAR U+0049
ENCODING 73
SWIDTH 750 0
DWIDTH 6 0
BBX 6 8 0 -1
BITMAP
38
10
10
10
10
10
38
00
ENDCHAR
STARTCHAR U+004A
ENCODING 74
SWIDTH 750 0
DWIDTH 6 0
BBX 6 8 0 -1
BITMAP
04
04
04
04
44
44
38
00
ENDCHAR
STARTCHAR U+004B
ENCODING 75
SWIDTH 750 0
DWIDTH 6 0
BBX 6 8 0 -1
BITMAP
44
48
50
60
50
48
44
00
ENDCHAR
STARTCHAR U+004C
ENCODING 76
SWIDTH 750 0
DWIDTH 6 0
BBX 6 8 0 -1
BITMAP
40
40
40
40
40
40
7C
00
ENDCHAR
STARTCHAR U+004D
ENCODING 77
SWIDTH 750 0
DWIDTH 6 0
BBX 6 8 0 -1
BITMAP
44
6C
54
54
44
44
44
00
ENDCHAR
STARTCHAR U+004E
ENCODING 78
SWIDTH 750 0
DWIDTH 6 0
BBX 6 8 0 -1
BITMAP
44
64
54
4C
44
44
44
00
ENDCHAR
STARTCHAR U+004F
ENCODING 79
SWIDTH 750 0
DWIDTH 6 0
BBX 6 8 0 -1
BITMAP
38
44
44
44
44
44
38
00
ENDCHAR
STARTCHAR U+0050
ENCODING 80
SWIDTH 750 0
DWIDTH 6 0
BBX 6 8 0 -1
BITMAP
78
44
44
78
40
40
40
00
ENDCHAR
STARTCHAR U+0051
ENCODING 81
SWIDTH 750 0
DWIDTH 6 0
BBX 6 8 0 -1
BITMAP
38
44
44
44
54
48
34
00
ENDCHAR
STARTCHAR U+0052
ENCODING 82
SWIDTH 750 0
DWIDTH 6 0
BBX 6 8 0 -1
BITMAP
78
44
44
78
50
48
44
00
ENDCHAR
STARTCHAR U+0053
ENCODING 83
SWIDTH 750 0
DWIDTH 6 0
BBX 6 8 0 -1
BITMAP
38
44
40
38
04
44
38
00
ENDCHAR
STARTCHAR U+0054
ENCODING 84
SWIDTH 750 0
DWIDTH 6 0
BBX 6 8 0 -1
BITMAP
7C
10
10
10
10
10
10
00
ENDCHAR
STARTCHAR U+0055
ENCODING 85
SWIDTH 750 0
DWIDTH 6 0
BBX 6 8 0 -1
BITMAP
44
44
44
44
44
44
38
00
ENDCHAR
STARTCHAR U+0056
ENCODING 86
SWIDTH 750 0
DWIDTH 6 0
BBX 6 8 0 -1
BITMAP
44
44
44
44
44
28
10
00
ENDCHAR
STARTCHAR U+0057
ENCODING 87
SWIDTH 750 0
DWIDTH 6 0
BBX 6 8 0 -1
BITMAP
44
44
44
54
54
6C
44
00
ENDCHAR
STARTCHAR U+0058
ENCODING 88
SWIDTH 750 0
DWIDTH 6 0
BBX 6 8 0 -1
BITMAP
44
28
10
10
10
28
44
00
ENDCHAR
STARTCHAR U+0059
ENCODING 89
SWIDTH 750 0
DWIDTH 6 0
BBX 6 8 0 -1
BITMAP
44
44
44
28
10
10
10
00
ENDCHAR
STARTCHAR U+005A
ENCODING 90
SWIDTH 750 0
DWIDTH 6 0
BBX 6 8 0 -1
BITMAP
7C
04
08
10
20
40
7C
00
ENDCHAR
STARTCHAR U+005B
ENCODING 91
SWIDTH 750 0
DWIDTH 6 0
BBX 6 8 0 -1
BITMAP
38
20
20
20
20
20
38
00
ENDCHAR
STARTCHAR U+005C
ENCODING 92
SWIDTH 750 0
DWIDTH 6 0
BBX 6 8 0 -1
BITMAP
00
40
20
10
08
04
00
00
ENDCHAR
STARTCHAR U+005D
ENCODING 93
SWIDTH 750 0
DWIDTH 6 0
BBX 6 8 0 -1
BITMAP
38
08
08
08
08
08
38
00
ENDCHAR
STARTCHAR U+005E
ENCODING 94
SWIDTH 750 0
DWIDTH 6 0
BBX 6 8 0 -1
BITMAP
20
50
00
00
00
00
00
00
ENDCHAR
STARTCHAR U+005F
ENCODING 95
SWIDTH 750 0
DWIDTH 6 0
BBX 6 8 0 -1
BITMAP
00
00
00
00
00
00
FC
00
ENDCHAR
STARTCHAR U+0060
ENCODING 96
SWIDTH 750 0
DWIDTH 6 0
BBX 6 8 0 -1
BITMAP
60
40
20
00
00
00
00
00
ENDCHAR
STARTCHAR U+0061
ENCODING 97
SWIDTH 750 0
DWIDTH 6 0
BBX 6 8 0 -1
BITMAP
00
00
38
04
3C
44
3C
00
ENDCHAR
STARTCHAR U+0062
ENCODING 98
SWIDTH 750 0
DWIDTH 6 0
BBX 6 8 0 -1
BITMAP
40
40
78
44
44
44
78
00
ENDCHAR
STARTCHAR U+0063
ENCODING 99
SWIDTH 750 0
DWIDTH 6 0
BBX 6 8 0 -1
BITMAP
00
00
38
44
40
44
38
00
ENDCHAR
STARTCHAR U+0064
ENCODING 100
SWIDTH 750 0
DWIDTH 6 0
BBX 6 8 0 -1
BITMAP
04
04
3C
44
44
44
3C
00
ENDCHAR
STARTCHAR U+0065
ENCODING 101
SWIDTH 750 0
DWIDTH 6 0
BBX 6 8 0 -1
BITMAP
00
00
38
44
7C
40
38
00
ENDCHAR
STARTCHAR U+0066
ENCODING 102
SWIDTH 750 0
DWIDTH 6 0
BBX 6 8 0 -1
BITMAP
0C
10
10
38
10
10
10
00
ENDCHAR
STARTCHAR U+0067
ENCODING 103
SWIDTH 750 0
DWIDTH 6 0
BBX 6 8 0 -1
BITMAP
00
00
3C
44
3C
04
38
00
ENDCHAR
STARTCHAR U+0068
ENCODING 104
SWIDTH 750 0
DWIDTH 6 0
BBX 6 8 0 -1
BITMAP
40
40
78
44
44
44
44
00
ENDCHAR
STARTCHAR U+0069
ENCODING 105
SWIDTH 750 0
DWIDTH 6 0
BBX 6 8 0 -1
BITMAP
10
00
10
10
10
10
10
00
ENDCHAR
STARTCHAR U+006A
ENCODING 106
SWIDTH 750 0
DWIDTH 6 0
BBX 6 8 0 -1
BITMAP
04
00
04
04
04
44
38
00
ENDCHAR
STARTCHAR U+006B
ENCODING 107
SWIDTH 750 0
DWIDTH 6 0
BBX 6 8 0 -1
BITMAP
40
40
48
50
70
48
44
00
ENDCHAR
STARTCHAR U+006C
ENCODING 108
SWIDTH 750 0
DWIDTH 6 0
BBX 6 8 0 -1
BITMAP
10
10
10
10
10
10
10
00
ENDCHAR
STARTCHAR U+006D
ENCODING 109
SWIDTH 750 0
DWIDTH 6 0
BBX 6 8 0 -1
BITMAP
00
00
78
54
54
54
54
00
ENDCHAR
STARTCHAR U+006E
ENCODING 110
SWIDTH 750 0
DWIDTH 6 0
BBX 6 8 0 -1
BITMAP
00
00
58
64
44
44
44
00
ENDCHAR
STARTCHAR U+006F
ENCODING 111
SWIDTH 750 0
DWIDTH 6 0
BBX 6 8 0 -1
BITMAP
00
00
38
44
44
44
38
00
ENDCHAR
STARTCHAR U+0070
ENCODING 112
SWIDTH 750 0
DWIDTH 6 0
BBX 6 8 0 -1
BITMAP
00
00
78
44
78
40
40
00
ENDCHAR
STARTCHAR U+0071
ENCODING 113
SWIDTH 750 0
DWIDTH 6 0
BBX 6 8 0 -1
BITMAP
00
00
3C
44
3C
04
04
00
ENDCHAR
STARTCHAR U+0072
ENCODING 114
SWIDTH 750 0
DWIDTH 6 0
BBX 6 8 0 -1
BITMAP
00
00
58
64
40
40
40
00
ENDCHAR
STARTCHAR U+0073
ENCODING 115
SWIDTH 750 0
DWIDTH 6 0
BBX 6 8 0 -1
BITMAP
00
00
3C
40
38
04
78
00
ENDCHAR
STARTCHAR U+0074
ENCODING 116
SWIDTH 750 0
DWIDTH 6 0
BBX 6 8 0 -1
BITMAP
10
10
7C
10
10
10
0C
00
ENDCHAR
STARTCHAR U+0075
ENCODING 117
SWIDTH 750 0
DWIDTH 6 0
BBX 6 8 0 -1
BITMAP
00
00
44
44
44
4C
34
00
ENDCHAR
STARTCHAR U+0076
ENCODING 118
SWIDTH 750 0
DWIDTH 6 0
BBX 6 8 0 -1
BITMAP
00
00
44
44
44
28
10
00
ENDCHAR
STARTCHAR U+0077
ENCODING 119
SWIDTH 750 0
DWIDTH 6 0
BBX 6 8 0 -1
BITMAP
00
00
54
54
54
54
28
00
ENDCHAR
STARTCHAR U+0078
ENCODING 120
SWIDTH 750 0
DWIDTH 6 0
BBX 6 8 0 -1
BITMAP
00
00
44
28
10
28
44
00
ENDCHAR
STARTCHAR U+0079
ENCODING 121
SWIDTH 750 0
DWIDTH 6 0
BBX 6 8 0 -1
BITMAP
00
00
44
44
3C
04
38
00
ENDCHAR
STARTCHAR U+007A
ENCODING 122
SWIDTH 750 0
DWIDTH 6 0
BBX 6 8 0 -1
BITMAP
00
00
7C
08
10
20
7C
00
ENDCHAR
STARTCHAR U+007B
ENCODING 123
SWIDTH 750 0
DWIDTH 6 0
BBX 6 8 0 -1
BITMAP
08
10
10
20
10
10
08
00
ENDCHAR
STARTCHAR U+007C
ENCODING 124
SWIDTH 750 0
DWIDTH 6 0
BBX 6 8 0 -1
BITMAP
10
10
10
10
10
10
10
00
ENDCHAR
STARTCHAR U+007D
ENCODING 125
SWIDTH 750 0
DWIDTH 6 0
BBX 6 8 0 -1
BITMAP
20
10
10
08
10
10
20
00
ENDCHAR
STARTCHAR U+007E
ENCODING 126
SWIDTH 750 0
DWIDTH 6 0
BBX 6 8 0 -1
BITMAP
34
58
00
00
00
00
00
00
ENDCHAR
ENDFONT
